<?xml version="1.0" standalone="no"?>
<!DOCTYPE svg PUBLIC "-//W3C//DTD SVG 20010904//EN"
 "http://www.w3.org/TR/2001/REC-SVG-20010904/DTD/svg10.dtd">
<svg version="1.0" xmlns="http://www.w3.org/2000/svg"
 width="297.000000pt" height="297.000000pt" viewBox="0 0 297.000000 297.000000"
 preserveAspectRatio="xMidYMid meet">
<metadata>
Created by potrace 1.11, written by Peter Selinger 2001-2013
</metadata>
<g transform="translate(0.000000,297.000000) scale(0.100000,-0.100000)"
fill="#000000" stroke="none">
<path d="M1255 2956 c-252 -49 -479 -147 -660 -285 -77 -59 -237 -219 -296
-296 -121 -158 -208 -347 -267 -575 -25 -98 -27 -119 -27 -320 0 -204 1 -221
28 -323 16 -60 40 -138 54 -175 14 -37 26 -71 28 -77 14 -62 145 -273 234
-377 126 -148 289 -282 446 -366 80 -43 266 -113 367 -137 94 -23 122 -25 323
-25 236 0 293 8 440 57 347 115 615 319 813 618 102 154 197 392 223 556 7 45
9 157 6 298 -4 207 -7 234 -31 319 -68 234 -186 452 -339 622 -74 83 -237 227
-287 254 -14 7 -61 35 -105 61 -91 55 -237 111 -387 151 -92 24 -125 27 -298
30 -135 2 -216 -1 -265 -10z m465 -142 c164 -28 373 -108 487 -185 23 -16 45
-29 49 -29 14 0 144 -113 215 -188 128 -134 200 -247 272 -427 71 -178 97
-311 97 -506 0 -265 -83 -545 -223 -747 l-52 -76 -5 175 c-3 96 -7 163 -8 149
-4 -47 -51 -131 -100 -178 -54 -52 -142 -107 -238 -148 l-63 -27 -68 28 c-37
15 -76 30 -86 34 -13 4 12 15 78 34 220 62 395 173 458 292 20 37 22 56 24
260 2 194 0 215 -11 175 -19 -68 -40 -101 -95 -155 -102 -100 -297 -187 -523
-235 -131 -28 -138 -27 -138 13 1 59 38 87 144 107 126 25 297 83 383 130 86
48 174 127 211 189 27 46 27 46 29 266 2 198 1 215 -11 173 -19 -65 -48 -109
-113 -168 -62 -57 -234 -146 -345 -178 l-66 -19 -5 36 c-3 20 -8 45 -11 56 -6
18 2 23 79 44 123 34 287 118 360 184 198 180 135 387 -164 537 -352 176 -986
206 -1414 66 -430 -141 -567 -390 -332 -603 73 -66 237 -150 360 -184 47 -13
83 -28 81 -34 -3 -5 -11 -29 -18 -52 -7 -24 -16 -43 -21 -43 -25 0 -173 57
-250 97 -140 72 -224 159 -253 261 -12 42 -13 25 -11 -173 2 -220 2 -220 29
-266 37 -62 125 -141 211 -189 86 -47 257 -105 383 -130 81 -15 96 -22 123
-51 18 -20 31 -45 31 -61 0 -35 -14 -36 -153 -7 -219 45 -417 134 -517 233
-57 56 -77 88 -96 156 -11 40 -13 19 -11 -175 2 -204 4 -223 24 -260 63 -119
238 -230 458 -292 67 -19 91 -30 78 -34 -10 -4 -50 -20 -89 -34 l-71 -27 -88
41 c-182 85 -276 177 -304 298 -6 27 -9 -13 -10 -142 l-2 -180 -21 29 c-30 40
-110 173 -130 216 -18 38 -62 159 -83 230 -48 156 -60 433 -26 608 23 119 89
315 133 391 93 166 218 318 348 423 68 55 256 166 309 182 25 8 79 27 120 41
178 64 447 84 651 49z"/>
</g>
</svg>
